<mxfile host="Electron" modified="2024-02-05T11:04:28.003Z" agent="Mozilla/5.0 (Windows NT 10.0; Win64; x64) AppleWebKit/537.36 (KHTML, like Gecko) draw.io/23.0.2 Chrome/120.0.6099.109 Electron/28.1.0 Safari/537.36" etag="_DvovRKeBr6bHMKNp6dr" version="23.0.2" type="device">
  <diagram name="Page-1" id="JHy7E07xTxOFN7Wl0gu-">
    <mxGraphModel dx="427" dy="1183" grid="1" gridSize="10" guides="1" tooltips="1" connect="1" arrows="1" fold="1" page="1" pageScale="1" pageWidth="850" pageHeight="1100" math="0" shadow="0">
      <root>
        <mxCell id="0" />
        <mxCell id="1" parent="0" />
        <mxCell id="f-qEIVwtMxRNiUWvZf_t-1" value="" style="rounded=0;whiteSpace=wrap;html=1;fillColor=none;" vertex="1" parent="1">
          <mxGeometry x="70" y="40" width="340" height="1010" as="geometry" />
        </mxCell>
        <mxCell id="f-qEIVwtMxRNiUWvZf_t-2" value="" style="rounded=0;whiteSpace=wrap;html=1;fillColor=none;" vertex="1" parent="1">
          <mxGeometry x="120" y="50" width="280" height="140" as="geometry" />
        </mxCell>
        <mxCell id="f-qEIVwtMxRNiUWvZf_t-6" value="image" style="rounded=0;whiteSpace=wrap;html=1;fillColor=none;" vertex="1" parent="1">
          <mxGeometry x="290" y="60" width="100" height="90" as="geometry" />
        </mxCell>
        <mxCell id="f-qEIVwtMxRNiUWvZf_t-7" value="" style="rounded=0;whiteSpace=wrap;html=1;fillColor=none;" vertex="1" parent="1">
          <mxGeometry x="130" y="60" width="150" height="10" as="geometry" />
        </mxCell>
        <mxCell id="f-qEIVwtMxRNiUWvZf_t-16" value="" style="rounded=0;whiteSpace=wrap;html=1;fillColor=none;" vertex="1" parent="1">
          <mxGeometry x="120" y="500" width="280" height="210" as="geometry" />
        </mxCell>
        <mxCell id="f-qEIVwtMxRNiUWvZf_t-25" value="" style="rounded=0;whiteSpace=wrap;html=1;fillColor=none;" vertex="1" parent="1">
          <mxGeometry x="130" y="80" width="150" height="10" as="geometry" />
        </mxCell>
        <mxCell id="f-qEIVwtMxRNiUWvZf_t-26" value="" style="rounded=0;whiteSpace=wrap;html=1;fillColor=none;" vertex="1" parent="1">
          <mxGeometry x="130" y="100" width="150" height="10" as="geometry" />
        </mxCell>
        <mxCell id="f-qEIVwtMxRNiUWvZf_t-27" value="" style="rounded=0;whiteSpace=wrap;html=1;fillColor=none;" vertex="1" parent="1">
          <mxGeometry x="130" y="120" width="150" height="10" as="geometry" />
        </mxCell>
        <mxCell id="f-qEIVwtMxRNiUWvZf_t-28" value="" style="rounded=0;whiteSpace=wrap;html=1;fillColor=none;" vertex="1" parent="1">
          <mxGeometry x="130" y="140" width="150" height="10" as="geometry" />
        </mxCell>
        <mxCell id="f-qEIVwtMxRNiUWvZf_t-29" value="" style="rounded=0;whiteSpace=wrap;html=1;fillColor=none;" vertex="1" parent="1">
          <mxGeometry x="130" y="160" width="100" height="10" as="geometry" />
        </mxCell>
        <mxCell id="f-qEIVwtMxRNiUWvZf_t-30" value="" style="rounded=1;whiteSpace=wrap;html=1;fillColor=none;" vertex="1" parent="1">
          <mxGeometry x="290" y="160" width="100" height="10" as="geometry" />
        </mxCell>
        <mxCell id="f-qEIVwtMxRNiUWvZf_t-8" value="sect." style="rounded=0;whiteSpace=wrap;html=1;fillColor=none;" vertex="1" parent="1">
          <mxGeometry x="80" y="50" width="30" height="20" as="geometry" />
        </mxCell>
        <mxCell id="f-qEIVwtMxRNiUWvZf_t-31" value="sect." style="rounded=0;whiteSpace=wrap;html=1;fillColor=none;" vertex="1" parent="1">
          <mxGeometry x="80" y="80" width="30" height="20" as="geometry" />
        </mxCell>
        <mxCell id="f-qEIVwtMxRNiUWvZf_t-32" value="sect." style="rounded=0;whiteSpace=wrap;html=1;fillColor=none;" vertex="1" parent="1">
          <mxGeometry x="80" y="110" width="30" height="20" as="geometry" />
        </mxCell>
        <mxCell id="f-qEIVwtMxRNiUWvZf_t-33" value="Link" style="rounded=0;whiteSpace=wrap;html=1;fillColor=none;" vertex="1" parent="1">
          <mxGeometry x="80" y="140" width="30" height="20" as="geometry" />
        </mxCell>
        <mxCell id="f-qEIVwtMxRNiUWvZf_t-59" value="" style="rounded=0;whiteSpace=wrap;html=1;fillColor=none;" vertex="1" parent="1">
          <mxGeometry x="120" y="730" width="280" height="230" as="geometry" />
        </mxCell>
        <mxCell id="f-qEIVwtMxRNiUWvZf_t-60" value="Link" style="rounded=0;whiteSpace=wrap;html=1;fillColor=none;" vertex="1" parent="1">
          <mxGeometry x="80" y="170" width="30" height="20" as="geometry" />
        </mxCell>
        <mxCell id="f-qEIVwtMxRNiUWvZf_t-61" value="" style="group" vertex="1" connectable="0" parent="1">
          <mxGeometry x="120" y="210" width="280" height="270" as="geometry" />
        </mxCell>
        <mxCell id="f-qEIVwtMxRNiUWvZf_t-5" value="" style="rounded=0;whiteSpace=wrap;html=1;fillColor=none;" vertex="1" parent="f-qEIVwtMxRNiUWvZf_t-61">
          <mxGeometry width="280" height="270" as="geometry" />
        </mxCell>
        <mxCell id="f-qEIVwtMxRNiUWvZf_t-20" value="" style="rounded=0;whiteSpace=wrap;html=1;fillColor=none;" vertex="1" parent="f-qEIVwtMxRNiUWvZf_t-61">
          <mxGeometry x="120" y="10" width="150" height="10" as="geometry" />
        </mxCell>
        <mxCell id="f-qEIVwtMxRNiUWvZf_t-21" value="image" style="rounded=0;whiteSpace=wrap;html=1;fillColor=none;" vertex="1" parent="f-qEIVwtMxRNiUWvZf_t-61">
          <mxGeometry x="10" y="10" width="100" height="90" as="geometry" />
        </mxCell>
        <mxCell id="f-qEIVwtMxRNiUWvZf_t-22" value="" style="rounded=0;whiteSpace=wrap;html=1;fillColor=none;" vertex="1" parent="f-qEIVwtMxRNiUWvZf_t-61">
          <mxGeometry x="120" y="30" width="150" height="10" as="geometry" />
        </mxCell>
        <mxCell id="f-qEIVwtMxRNiUWvZf_t-23" value="" style="rounded=0;whiteSpace=wrap;html=1;fillColor=none;" vertex="1" parent="f-qEIVwtMxRNiUWvZf_t-61">
          <mxGeometry x="120" y="50" width="150" height="10" as="geometry" />
        </mxCell>
        <mxCell id="f-qEIVwtMxRNiUWvZf_t-24" value="" style="rounded=0;whiteSpace=wrap;html=1;fillColor=none;" vertex="1" parent="f-qEIVwtMxRNiUWvZf_t-61">
          <mxGeometry x="120" y="70" width="150" height="10" as="geometry" />
        </mxCell>
        <mxCell id="f-qEIVwtMxRNiUWvZf_t-34" value="" style="rounded=1;whiteSpace=wrap;html=1;fillColor=none;" vertex="1" parent="f-qEIVwtMxRNiUWvZf_t-61">
          <mxGeometry x="10" y="110" width="100" height="10" as="geometry" />
        </mxCell>
        <mxCell id="f-qEIVwtMxRNiUWvZf_t-35" value="" style="rounded=0;whiteSpace=wrap;html=1;fillColor=none;" vertex="1" parent="f-qEIVwtMxRNiUWvZf_t-61">
          <mxGeometry x="120" y="90" width="150" height="10" as="geometry" />
        </mxCell>
        <mxCell id="f-qEIVwtMxRNiUWvZf_t-36" value="" style="rounded=0;whiteSpace=wrap;html=1;fillColor=none;" vertex="1" parent="f-qEIVwtMxRNiUWvZf_t-61">
          <mxGeometry x="120" y="110" width="70" height="10" as="geometry" />
        </mxCell>
        <mxCell id="f-qEIVwtMxRNiUWvZf_t-37" value="" style="rounded=0;whiteSpace=wrap;html=1;fillColor=none;" vertex="1" parent="f-qEIVwtMxRNiUWvZf_t-61">
          <mxGeometry x="10" y="140" width="80" height="120" as="geometry" />
        </mxCell>
        <mxCell id="f-qEIVwtMxRNiUWvZf_t-38" value="" style="rounded=0;whiteSpace=wrap;html=1;fillColor=none;" vertex="1" parent="f-qEIVwtMxRNiUWvZf_t-61">
          <mxGeometry x="20" y="200" width="60" height="10" as="geometry" />
        </mxCell>
        <mxCell id="f-qEIVwtMxRNiUWvZf_t-39" value="" style="rounded=0;whiteSpace=wrap;html=1;fillColor=none;" vertex="1" parent="f-qEIVwtMxRNiUWvZf_t-61">
          <mxGeometry x="20" y="150" width="60" height="40" as="geometry" />
        </mxCell>
        <mxCell id="f-qEIVwtMxRNiUWvZf_t-40" value="" style="rounded=0;whiteSpace=wrap;html=1;fillColor=none;" vertex="1" parent="f-qEIVwtMxRNiUWvZf_t-61">
          <mxGeometry x="20" y="220" width="60" height="10" as="geometry" />
        </mxCell>
        <mxCell id="f-qEIVwtMxRNiUWvZf_t-41" value="" style="rounded=0;whiteSpace=wrap;html=1;fillColor=none;" vertex="1" parent="f-qEIVwtMxRNiUWvZf_t-61">
          <mxGeometry x="20" y="240" width="50" height="10" as="geometry" />
        </mxCell>
        <mxCell id="f-qEIVwtMxRNiUWvZf_t-48" value="" style="rounded=0;whiteSpace=wrap;html=1;fillColor=none;" vertex="1" parent="f-qEIVwtMxRNiUWvZf_t-61">
          <mxGeometry x="100" y="140" width="80" height="120" as="geometry" />
        </mxCell>
        <mxCell id="f-qEIVwtMxRNiUWvZf_t-49" value="" style="rounded=0;whiteSpace=wrap;html=1;fillColor=none;" vertex="1" parent="f-qEIVwtMxRNiUWvZf_t-61">
          <mxGeometry x="110" y="200" width="60" height="10" as="geometry" />
        </mxCell>
        <mxCell id="f-qEIVwtMxRNiUWvZf_t-50" value="" style="rounded=0;whiteSpace=wrap;html=1;fillColor=none;" vertex="1" parent="f-qEIVwtMxRNiUWvZf_t-61">
          <mxGeometry x="110" y="150" width="60" height="40" as="geometry" />
        </mxCell>
        <mxCell id="f-qEIVwtMxRNiUWvZf_t-51" value="" style="rounded=0;whiteSpace=wrap;html=1;fillColor=none;" vertex="1" parent="f-qEIVwtMxRNiUWvZf_t-61">
          <mxGeometry x="110" y="220" width="60" height="10" as="geometry" />
        </mxCell>
        <mxCell id="f-qEIVwtMxRNiUWvZf_t-52" value="" style="rounded=0;whiteSpace=wrap;html=1;fillColor=none;" vertex="1" parent="f-qEIVwtMxRNiUWvZf_t-61">
          <mxGeometry x="110" y="240" width="50" height="10" as="geometry" />
        </mxCell>
        <mxCell id="f-qEIVwtMxRNiUWvZf_t-53" value="" style="rounded=0;whiteSpace=wrap;html=1;fillColor=none;" vertex="1" parent="f-qEIVwtMxRNiUWvZf_t-61">
          <mxGeometry x="190" y="140" width="80" height="120" as="geometry" />
        </mxCell>
        <mxCell id="f-qEIVwtMxRNiUWvZf_t-54" value="" style="rounded=0;whiteSpace=wrap;html=1;fillColor=none;" vertex="1" parent="f-qEIVwtMxRNiUWvZf_t-61">
          <mxGeometry x="200" y="200" width="60" height="10" as="geometry" />
        </mxCell>
        <mxCell id="f-qEIVwtMxRNiUWvZf_t-55" value="" style="rounded=0;whiteSpace=wrap;html=1;fillColor=none;" vertex="1" parent="f-qEIVwtMxRNiUWvZf_t-61">
          <mxGeometry x="200" y="150" width="60" height="40" as="geometry" />
        </mxCell>
        <mxCell id="f-qEIVwtMxRNiUWvZf_t-56" value="" style="rounded=0;whiteSpace=wrap;html=1;fillColor=none;" vertex="1" parent="f-qEIVwtMxRNiUWvZf_t-61">
          <mxGeometry x="200" y="220" width="60" height="10" as="geometry" />
        </mxCell>
        <mxCell id="f-qEIVwtMxRNiUWvZf_t-57" value="" style="rounded=0;whiteSpace=wrap;html=1;fillColor=none;" vertex="1" parent="f-qEIVwtMxRNiUWvZf_t-61">
          <mxGeometry x="200" y="240" width="50" height="10" as="geometry" />
        </mxCell>
        <mxCell id="f-qEIVwtMxRNiUWvZf_t-80" value="" style="group" vertex="1" connectable="0" parent="1">
          <mxGeometry x="130" y="590" width="260" height="110" as="geometry" />
        </mxCell>
        <mxCell id="f-qEIVwtMxRNiUWvZf_t-62" value="" style="rounded=0;whiteSpace=wrap;html=1;fillColor=none;" vertex="1" parent="f-qEIVwtMxRNiUWvZf_t-80">
          <mxGeometry width="80" height="110" as="geometry" />
        </mxCell>
        <mxCell id="f-qEIVwtMxRNiUWvZf_t-63" value="" style="rounded=0;whiteSpace=wrap;html=1;fillColor=none;" vertex="1" parent="f-qEIVwtMxRNiUWvZf_t-80">
          <mxGeometry x="90" width="80" height="110" as="geometry" />
        </mxCell>
        <mxCell id="f-qEIVwtMxRNiUWvZf_t-64" value="" style="rounded=0;whiteSpace=wrap;html=1;fillColor=none;fontStyle=1" vertex="1" parent="f-qEIVwtMxRNiUWvZf_t-80">
          <mxGeometry x="180" width="80" height="110" as="geometry" />
        </mxCell>
        <mxCell id="f-qEIVwtMxRNiUWvZf_t-65" value="" style="rounded=0;whiteSpace=wrap;html=1;fillColor=none;" vertex="1" parent="f-qEIVwtMxRNiUWvZf_t-80">
          <mxGeometry x="10" y="10" width="60" height="10" as="geometry" />
        </mxCell>
        <mxCell id="f-qEIVwtMxRNiUWvZf_t-66" value="" style="rounded=0;whiteSpace=wrap;html=1;fillColor=none;" vertex="1" parent="f-qEIVwtMxRNiUWvZf_t-80">
          <mxGeometry x="10" y="30" width="60" height="10" as="geometry" />
        </mxCell>
        <mxCell id="f-qEIVwtMxRNiUWvZf_t-67" value="" style="rounded=0;whiteSpace=wrap;html=1;fillColor=none;" vertex="1" parent="f-qEIVwtMxRNiUWvZf_t-80">
          <mxGeometry x="10" y="50" width="60" height="10" as="geometry" />
        </mxCell>
        <mxCell id="f-qEIVwtMxRNiUWvZf_t-68" value="" style="rounded=0;whiteSpace=wrap;html=1;fillColor=none;" vertex="1" parent="f-qEIVwtMxRNiUWvZf_t-80">
          <mxGeometry x="10" y="70" width="60" height="10" as="geometry" />
        </mxCell>
        <mxCell id="f-qEIVwtMxRNiUWvZf_t-69" value="" style="rounded=0;whiteSpace=wrap;html=1;fillColor=none;" vertex="1" parent="f-qEIVwtMxRNiUWvZf_t-80">
          <mxGeometry x="10" y="90" width="60" height="10" as="geometry" />
        </mxCell>
        <mxCell id="f-qEIVwtMxRNiUWvZf_t-70" value="" style="rounded=0;whiteSpace=wrap;html=1;fillColor=none;" vertex="1" parent="f-qEIVwtMxRNiUWvZf_t-80">
          <mxGeometry x="100" y="10" width="60" height="10" as="geometry" />
        </mxCell>
        <mxCell id="f-qEIVwtMxRNiUWvZf_t-71" value="" style="rounded=0;whiteSpace=wrap;html=1;fillColor=none;" vertex="1" parent="f-qEIVwtMxRNiUWvZf_t-80">
          <mxGeometry x="100" y="30" width="60" height="10" as="geometry" />
        </mxCell>
        <mxCell id="f-qEIVwtMxRNiUWvZf_t-72" value="" style="rounded=0;whiteSpace=wrap;html=1;fillColor=none;" vertex="1" parent="f-qEIVwtMxRNiUWvZf_t-80">
          <mxGeometry x="100" y="50" width="60" height="10" as="geometry" />
        </mxCell>
        <mxCell id="f-qEIVwtMxRNiUWvZf_t-73" value="" style="rounded=0;whiteSpace=wrap;html=1;fillColor=none;" vertex="1" parent="f-qEIVwtMxRNiUWvZf_t-80">
          <mxGeometry x="100" y="70" width="60" height="10" as="geometry" />
        </mxCell>
        <mxCell id="f-qEIVwtMxRNiUWvZf_t-74" value="" style="rounded=0;whiteSpace=wrap;html=1;fillColor=none;" vertex="1" parent="f-qEIVwtMxRNiUWvZf_t-80">
          <mxGeometry x="100" y="90" width="60" height="10" as="geometry" />
        </mxCell>
        <mxCell id="f-qEIVwtMxRNiUWvZf_t-75" value="" style="rounded=0;whiteSpace=wrap;html=1;fillColor=none;" vertex="1" parent="f-qEIVwtMxRNiUWvZf_t-80">
          <mxGeometry x="190" y="10" width="60" height="10" as="geometry" />
        </mxCell>
        <mxCell id="f-qEIVwtMxRNiUWvZf_t-76" value="" style="rounded=0;whiteSpace=wrap;html=1;fillColor=none;" vertex="1" parent="f-qEIVwtMxRNiUWvZf_t-80">
          <mxGeometry x="190" y="30" width="60" height="10" as="geometry" />
        </mxCell>
        <mxCell id="f-qEIVwtMxRNiUWvZf_t-77" value="" style="rounded=0;whiteSpace=wrap;html=1;fillColor=none;" vertex="1" parent="f-qEIVwtMxRNiUWvZf_t-80">
          <mxGeometry x="190" y="50" width="60" height="10" as="geometry" />
        </mxCell>
        <mxCell id="f-qEIVwtMxRNiUWvZf_t-78" value="" style="rounded=0;whiteSpace=wrap;html=1;fillColor=none;" vertex="1" parent="f-qEIVwtMxRNiUWvZf_t-80">
          <mxGeometry x="190" y="70" width="60" height="10" as="geometry" />
        </mxCell>
        <mxCell id="f-qEIVwtMxRNiUWvZf_t-79" value="" style="rounded=0;whiteSpace=wrap;html=1;fillColor=none;" vertex="1" parent="f-qEIVwtMxRNiUWvZf_t-80">
          <mxGeometry x="190" y="90" width="60" height="10" as="geometry" />
        </mxCell>
        <mxCell id="f-qEIVwtMxRNiUWvZf_t-81" value="" style="rounded=0;whiteSpace=wrap;html=1;fillColor=none;" vertex="1" parent="1">
          <mxGeometry x="130" y="510" width="260" height="70" as="geometry" />
        </mxCell>
        <mxCell id="f-qEIVwtMxRNiUWvZf_t-102" value="" style="rounded=0;whiteSpace=wrap;html=1;fillColor=none;" vertex="1" parent="1">
          <mxGeometry x="140" y="520" width="240" height="10" as="geometry" />
        </mxCell>
        <mxCell id="f-qEIVwtMxRNiUWvZf_t-103" value="" style="rounded=0;whiteSpace=wrap;html=1;fillColor=none;" vertex="1" parent="1">
          <mxGeometry x="140" y="540" width="240" height="10" as="geometry" />
        </mxCell>
        <mxCell id="f-qEIVwtMxRNiUWvZf_t-104" value="" style="rounded=0;whiteSpace=wrap;html=1;fillColor=none;" vertex="1" parent="1">
          <mxGeometry x="140" y="560" width="180" height="10" as="geometry" />
        </mxCell>
        <mxCell id="f-qEIVwtMxRNiUWvZf_t-112" value="" style="group" vertex="1" connectable="0" parent="1">
          <mxGeometry x="130" y="740" width="80" height="100" as="geometry" />
        </mxCell>
        <mxCell id="f-qEIVwtMxRNiUWvZf_t-107" value="" style="rounded=0;whiteSpace=wrap;html=1;fillColor=none;" vertex="1" parent="f-qEIVwtMxRNiUWvZf_t-112">
          <mxGeometry width="80" height="50" as="geometry" />
        </mxCell>
        <mxCell id="f-qEIVwtMxRNiUWvZf_t-111" value="" style="group" vertex="1" connectable="0" parent="f-qEIVwtMxRNiUWvZf_t-112">
          <mxGeometry y="50" width="80" height="50" as="geometry" />
        </mxCell>
        <mxCell id="f-qEIVwtMxRNiUWvZf_t-108" value="" style="rounded=0;whiteSpace=wrap;html=1;fillColor=none;" vertex="1" parent="f-qEIVwtMxRNiUWvZf_t-111">
          <mxGeometry width="80" height="50" as="geometry" />
        </mxCell>
        <mxCell id="f-qEIVwtMxRNiUWvZf_t-109" value="" style="rounded=0;whiteSpace=wrap;html=1;fillColor=none;" vertex="1" parent="f-qEIVwtMxRNiUWvZf_t-111">
          <mxGeometry x="10" y="10" width="60" height="10" as="geometry" />
        </mxCell>
        <mxCell id="f-qEIVwtMxRNiUWvZf_t-110" value="" style="rounded=0;whiteSpace=wrap;html=1;fillColor=none;" vertex="1" parent="f-qEIVwtMxRNiUWvZf_t-111">
          <mxGeometry x="10" y="30" width="60" height="10" as="geometry" />
        </mxCell>
        <mxCell id="f-qEIVwtMxRNiUWvZf_t-113" value="" style="group" vertex="1" connectable="0" parent="1">
          <mxGeometry x="220" y="740" width="80" height="100" as="geometry" />
        </mxCell>
        <mxCell id="f-qEIVwtMxRNiUWvZf_t-114" value="" style="rounded=0;whiteSpace=wrap;html=1;fillColor=none;" vertex="1" parent="f-qEIVwtMxRNiUWvZf_t-113">
          <mxGeometry width="80" height="50" as="geometry" />
        </mxCell>
        <mxCell id="f-qEIVwtMxRNiUWvZf_t-115" value="" style="group" vertex="1" connectable="0" parent="f-qEIVwtMxRNiUWvZf_t-113">
          <mxGeometry y="50" width="80" height="50" as="geometry" />
        </mxCell>
        <mxCell id="f-qEIVwtMxRNiUWvZf_t-116" value="" style="rounded=0;whiteSpace=wrap;html=1;fillColor=none;" vertex="1" parent="f-qEIVwtMxRNiUWvZf_t-115">
          <mxGeometry width="80" height="50" as="geometry" />
        </mxCell>
        <mxCell id="f-qEIVwtMxRNiUWvZf_t-117" value="" style="rounded=0;whiteSpace=wrap;html=1;fillColor=none;" vertex="1" parent="f-qEIVwtMxRNiUWvZf_t-115">
          <mxGeometry x="10" y="10" width="60" height="10" as="geometry" />
        </mxCell>
        <mxCell id="f-qEIVwtMxRNiUWvZf_t-118" value="" style="rounded=0;whiteSpace=wrap;html=1;fillColor=none;" vertex="1" parent="f-qEIVwtMxRNiUWvZf_t-115">
          <mxGeometry x="10" y="30" width="60" height="10" as="geometry" />
        </mxCell>
        <mxCell id="f-qEIVwtMxRNiUWvZf_t-119" value="" style="group" vertex="1" connectable="0" parent="1">
          <mxGeometry x="310" y="740" width="80" height="100" as="geometry" />
        </mxCell>
        <mxCell id="f-qEIVwtMxRNiUWvZf_t-120" value="" style="rounded=0;whiteSpace=wrap;html=1;fillColor=none;" vertex="1" parent="f-qEIVwtMxRNiUWvZf_t-119">
          <mxGeometry width="80" height="50" as="geometry" />
        </mxCell>
        <mxCell id="f-qEIVwtMxRNiUWvZf_t-121" value="" style="group" vertex="1" connectable="0" parent="f-qEIVwtMxRNiUWvZf_t-119">
          <mxGeometry y="50" width="80" height="50" as="geometry" />
        </mxCell>
        <mxCell id="f-qEIVwtMxRNiUWvZf_t-122" value="" style="rounded=0;whiteSpace=wrap;html=1;fillColor=none;" vertex="1" parent="f-qEIVwtMxRNiUWvZf_t-121">
          <mxGeometry width="80" height="50" as="geometry" />
        </mxCell>
        <mxCell id="f-qEIVwtMxRNiUWvZf_t-123" value="" style="rounded=0;whiteSpace=wrap;html=1;fillColor=none;" vertex="1" parent="f-qEIVwtMxRNiUWvZf_t-121">
          <mxGeometry x="10" y="10" width="60" height="10" as="geometry" />
        </mxCell>
        <mxCell id="f-qEIVwtMxRNiUWvZf_t-124" value="" style="rounded=0;whiteSpace=wrap;html=1;fillColor=none;" vertex="1" parent="f-qEIVwtMxRNiUWvZf_t-121">
          <mxGeometry x="10" y="30" width="60" height="10" as="geometry" />
        </mxCell>
        <mxCell id="f-qEIVwtMxRNiUWvZf_t-125" value="" style="group" vertex="1" connectable="0" parent="1">
          <mxGeometry x="130" y="850" width="80" height="100" as="geometry" />
        </mxCell>
        <mxCell id="f-qEIVwtMxRNiUWvZf_t-126" value="" style="rounded=0;whiteSpace=wrap;html=1;fillColor=none;" vertex="1" parent="f-qEIVwtMxRNiUWvZf_t-125">
          <mxGeometry width="80" height="50" as="geometry" />
        </mxCell>
        <mxCell id="f-qEIVwtMxRNiUWvZf_t-127" value="" style="group" vertex="1" connectable="0" parent="f-qEIVwtMxRNiUWvZf_t-125">
          <mxGeometry y="50" width="80" height="50" as="geometry" />
        </mxCell>
        <mxCell id="f-qEIVwtMxRNiUWvZf_t-128" value="" style="rounded=0;whiteSpace=wrap;html=1;fillColor=none;" vertex="1" parent="f-qEIVwtMxRNiUWvZf_t-127">
          <mxGeometry width="80" height="50" as="geometry" />
        </mxCell>
        <mxCell id="f-qEIVwtMxRNiUWvZf_t-129" value="" style="rounded=0;whiteSpace=wrap;html=1;fillColor=none;" vertex="1" parent="f-qEIVwtMxRNiUWvZf_t-127">
          <mxGeometry x="10" y="10" width="60" height="10" as="geometry" />
        </mxCell>
        <mxCell id="f-qEIVwtMxRNiUWvZf_t-130" value="" style="rounded=0;whiteSpace=wrap;html=1;fillColor=none;" vertex="1" parent="f-qEIVwtMxRNiUWvZf_t-127">
          <mxGeometry x="10" y="30" width="60" height="10" as="geometry" />
        </mxCell>
        <mxCell id="f-qEIVwtMxRNiUWvZf_t-131" value="" style="group" vertex="1" connectable="0" parent="1">
          <mxGeometry x="220" y="850" width="80" height="100" as="geometry" />
        </mxCell>
        <mxCell id="f-qEIVwtMxRNiUWvZf_t-132" value="" style="rounded=0;whiteSpace=wrap;html=1;fillColor=none;" vertex="1" parent="f-qEIVwtMxRNiUWvZf_t-131">
          <mxGeometry width="80" height="50" as="geometry" />
        </mxCell>
        <mxCell id="f-qEIVwtMxRNiUWvZf_t-133" value="" style="group" vertex="1" connectable="0" parent="f-qEIVwtMxRNiUWvZf_t-131">
          <mxGeometry y="50" width="80" height="50" as="geometry" />
        </mxCell>
        <mxCell id="f-qEIVwtMxRNiUWvZf_t-134" value="" style="rounded=0;whiteSpace=wrap;html=1;fillColor=none;" vertex="1" parent="f-qEIVwtMxRNiUWvZf_t-133">
          <mxGeometry width="80" height="50" as="geometry" />
        </mxCell>
        <mxCell id="f-qEIVwtMxRNiUWvZf_t-135" value="" style="rounded=0;whiteSpace=wrap;html=1;fillColor=none;" vertex="1" parent="f-qEIVwtMxRNiUWvZf_t-133">
          <mxGeometry x="10" y="10" width="60" height="10" as="geometry" />
        </mxCell>
        <mxCell id="f-qEIVwtMxRNiUWvZf_t-136" value="" style="rounded=0;whiteSpace=wrap;html=1;fillColor=none;" vertex="1" parent="f-qEIVwtMxRNiUWvZf_t-133">
          <mxGeometry x="10" y="30" width="60" height="10" as="geometry" />
        </mxCell>
        <mxCell id="f-qEIVwtMxRNiUWvZf_t-137" value="" style="group" vertex="1" connectable="0" parent="1">
          <mxGeometry x="310" y="850" width="80" height="100" as="geometry" />
        </mxCell>
        <mxCell id="f-qEIVwtMxRNiUWvZf_t-138" value="" style="rounded=0;whiteSpace=wrap;html=1;fillColor=none;" vertex="1" parent="f-qEIVwtMxRNiUWvZf_t-137">
          <mxGeometry width="80" height="50" as="geometry" />
        </mxCell>
        <mxCell id="f-qEIVwtMxRNiUWvZf_t-139" value="" style="group" vertex="1" connectable="0" parent="f-qEIVwtMxRNiUWvZf_t-137">
          <mxGeometry y="50" width="80" height="50" as="geometry" />
        </mxCell>
        <mxCell id="f-qEIVwtMxRNiUWvZf_t-140" value="" style="rounded=0;whiteSpace=wrap;html=1;fillColor=none;" vertex="1" parent="f-qEIVwtMxRNiUWvZf_t-139">
          <mxGeometry width="80" height="50" as="geometry" />
        </mxCell>
        <mxCell id="f-qEIVwtMxRNiUWvZf_t-141" value="" style="rounded=0;whiteSpace=wrap;html=1;fillColor=none;" vertex="1" parent="f-qEIVwtMxRNiUWvZf_t-139">
          <mxGeometry x="10" y="10" width="60" height="10" as="geometry" />
        </mxCell>
        <mxCell id="f-qEIVwtMxRNiUWvZf_t-142" value="" style="rounded=0;whiteSpace=wrap;html=1;fillColor=none;" vertex="1" parent="f-qEIVwtMxRNiUWvZf_t-139">
          <mxGeometry x="10" y="30" width="60" height="10" as="geometry" />
        </mxCell>
        <mxCell id="f-qEIVwtMxRNiUWvZf_t-143" value="" style="rounded=0;whiteSpace=wrap;html=1;fillColor=none;" vertex="1" parent="1">
          <mxGeometry x="70" y="980" width="340" height="70" as="geometry" />
        </mxCell>
      </root>
    </mxGraphModel>
  </diagram>
</mxfile>
